# AST/ASF file generated using VICON BodyLanguage
# -----------------------------------------------
:version 1.10
:name VICON
:units
  mass 1.0
  length 0.45
  angle deg
:documentation
   .ast/.asf automatically generated from VICON data using
   VICON BodyBuilder and BodyLanguage model FoxedUp or BRILLIANT.MOD
:root
   order TX TY TZ RX RY RZ
   axis XYZ
   position 0 0 0  
   orientation 0 0 0 
:bonedata
  begin
     id 1 
     name lhipjoint
     direction 0.535335 -0.74333 0.401095 
     length 2.04549 
     axis 0 0 0  XYZ
  end
  begin
     id 2 
     name lfemur
     direction 0.34202 -0.939693 0  
     length 6.95643  
     axis 0 0 20  XYZ
    dof rx ry rz
    limits (-160.0 20.0)
           (-70.0 70.0)
           (-60.0 70.0)
  end
  begin
     id 3 
     name ltibia
     direction 0.34192 -0.939729 0   
     length 5.55969   
     axis 0 0 20   XYZ
    dof rx
    limits (-10.0 170.0)
  end
  begin
     id 4 
     name lfoot
     direction 0.216943 -0.596046 0.773088   
     length 2.27918   
     axis -90 7.62852e-016 20   XYZ
    dof rx rz
    limits (-45.0 90.0)
           (-70.0 20.0)
  end
  begin
     id 5 
     name ltoes
     direction 1.53519e-011 -4.21748e-011 1   
     length 1.05562   
     axis -90 7.62852e-016 20   XYZ
    dof rx
    limits (-90.0 20.0)
  end
  begin
     id 6 
     name rhipjoint
     direction -0.576368 -0.719173 0.38806   
     length 2.1142  
     axis 0 0 0  XYZ 
  end
  begin
     id 7 
     name rfemur
     direction -0.34202 -0.939693 0   
     length 7.07928   
     axis 0 0 -20   XYZ
    dof rx ry rz
    limits (-160.0 20.0)
           (-70.0 70.0)
           (-70.0 60.0)
  end
  begin
     id 8 
     name rtibia
     direction -0.34202 -0.939693 0   
     length 5.79974   
     axis 0 0 -20   XYZ
    dof rx
    limits (-10.0 170.0)
 end
 begin
     id 9 
     name rfoot
     direction -0.189288 -0.520065 0.832888   
     length 2.42173  
     axis -90 -7.62852e-016 -20   XYZ
    dof rx rz
    limits (-45.0 90.0)
           (-20.0 70.0)
  end
  begin
     id 10 
     name rtoes
     direction -1.53574e-011 -4.21658e-011 1   
     length 1.14469   
     axis -90 -7.62852e-016 -20   XYZ
    dof rx
    limits (-90.0 20.0)
  end
  begin
     id 11 
     name lowerback
     direction -0.00135702 0.993803 0.111144   
     length 1.91308   
     axis 0 0 0   XYZ
    dof rx ry rz
    limits (-20.0 45.0)
           (-30.0 30.0)
           (-30.0 30.0)
  end
  begin
     id 12 
     name upperback
     direction -0.0056745 0.999813 0.0184631   
     length 1.9212   
     axis 0 0 0   XYZ
    dof rx ry rz
    limits (-20.0 45.0)
           (-30.0 30.0)
           (-30.0 30.0)
  end
  begin
     id 13 
     name thorax
     direction -0.00733434 0.999426 -0.0330788   
     length 1.94196   
     axis 0 0 0   XYZ
    dof rx ry rz
    limits (-20.0 45.0)
           (-30.0 30.0)
           (-30.0 30.0)
  end
  begin
     id 14 
     name lowerneck
     direction 0.0563074 0.996944 -0.0541571   
     length 2.34257   
     axis 0 0 0   XYZ
    dof rx ry rz
    limits (-20.0 45.0)
           (-30.0 30.0)
           (-30.0 30.0)
  end
  begin
     id 15 
     name upperneck
     direction -0.0544519 0.976166 -0.210085   
     length 2.32506   
     axis 0 0 0   XYZ
    dof rx ry rz
    limits (-20.0 45.0)
           (-30.0 30.0)
           (-30.0 30.0)
  end
  begin
     id 16
     name head
     direction -0.0226035 0.997615 -0.0652205  
     length 2.3648  
     axis 0 0 0   XYZ
    dof rx ry rz
    limits (-20.0 45.0)
           (-30.0 30.0)
           (-30.0 30.0)
  end
  begin
     id 17 
     name lclavicle
     direction 0.92109 0.381297 -0.0787716  
     length 4.0487  
     axis 0 0 0   XYZ
    dof ry rz
    limits (-20.0 10.0)
           (0.0 20.0)
  end
  begin
     id 18 
     name lhumerus
     direction 1 -4.48986e-011 3.56724e-027   
     length 4.94991   
     axis 180 -30 -90   XYZ
    dof rx ry rz
    limits (-60.0 90.0)
           (-90.0 90.0)
           (-90.0 90.0)
  end
  begin
     id 19
     name lradius
     direction 1 -4.48981e-011 8.62147e-027   
     length 2.7606   
     axis 180 -30 -90   XYZ
    dof rx
    limits (-10.0 170.0)
  end
  begin
     id 20
     name lwrist
     direction 1 -4.48989e-011 1.59799e-026   
     length 1.3803   
     axis -1.17785e-014 90 90   XYZ
    dof ry
    limits (-180.0 0.0)
 end
  begin
     id 21 
     name lhand
     direction 1 -4.48896e-011 3.19599e-026   
     length 0.843936   
     axis -2.03931e-014 90 90   XYZ
    dof rx rz
    limits (-90.0 90.0)
           (-45.0 45.0)
  end
  begin
     id 22 
     name lfingers
     direction 1 -4.48887e-011 6.39197e-026   
     length 0.680403   
     axis -4.07862e-014 90 90   XYZ
    dof rx
    limits (0.0 90.0)
  end
  begin
     id 23
     name lthumb
     direction 0.707107 -6.348e-011 0.707107   
     length 0.976926   
     axis -90 45 2.85299e-015   XYZ
    dof rx rz
    limits (-45.0 45.0)
           (-45.0 45.0)
  end
  begin
     id 24 
     name rclavicle
     direction -0.951104 0.307692 -0.026953   
     length 4.21801  
     axis 0 0 0   XYZ 
    dof ry rz
    limits (-10.0 20.0)
           (-20.0 0.0)
  end
  begin
     id 25 
     name rhumerus
     direction -1 -4.4896e-011 -1.8171e-018  
     length 4.32982   
     axis 180 30 90   XYZ
    dof rx ry rz
    limits (-90.0 60.0)
           (-90.0 90.0)
           (-90.0 90.0)
  end
  begin
     id 26 
     name rradius
     direction -1 -4.48959e-011 8.25165e-027   
     length 3.20057   
     axis 180 30 90   XYZ
    dof rx
    limits (-10.0 170.0)
  end
  begin
     id 27 
     name rwrist
     direction -1 -4.48997e-011 1.59799e-026   
     length 1.60029   
     axis -1.17785e-014 -90 -90   XYZ
    dof ry
    limits (-180.0 0.0)
  end
  begin
     id 28
     name rhand
     direction -1 -4.49023e-011 3.19599e-026   
     length 0.960433   
     axis -2.03931e-014 -90 -90   XYZ
    dof rx rz
    limits (-90.0 90.0)
           (-45.0 45.0)
  end
  begin
     id 29
     name rfingers
     direction -1 -4.48802e-011 6.39197e-026   
     length 0.774326   
     axis -4.07862e-014 -90 -90   XYZ
    dof rx
    limits (0.0 90.0)
  end
  begin
     id 30
     name rthumb
     direction -0.707107 -6.34876e-011 0.707107   
     length 1.11178   
     axis -90 -45 -2.85299e-015   XYZ
    dof rx rz
    limits (-45.0 45.0)
           (-45.0 45.0)
  end
:hierarchy
  begin
    root lhipjoint rhipjoint lowerback
    lhipjoint lfemur
    lfemur ltibia
    ltibia lfoot
    lfoot ltoes
    rhipjoint rfemur
    rfemur rtibia
    rtibia rfoot
    rfoot rtoes
    lowerback upperback
    upperback thorax
    thorax lowerneck lclavicle rclavicle
    lowerneck upperneck
    upperneck head
    lclavicle lhumerus
    lhumerus lradius
    lradius lwrist
    lwrist lhand lthumb
    lhand lfingers
    rclavicle rhumerus
    rhumerus rradius
    rradius rwrist
    rwrist rhand rthumb
    rhand rfingers
end

#!OML:ASF C:\KaitlinTest1\Natural Motions\Nikki\Session 2\Nikki.ASF
:FULLY-SPECIFIED
:DEGREES
517
root -13.8304 16.7359 5.04422 -319.935 92.6231 -329.167
lowerback -12.2809 -1.42282 2.10698
upperback -4.81912 -1.90522 -0.556298
thorax 1.74474 -0.887175 -2.01778
lowerneck -9.77555 -13.1157 -7.94744
upperneck 4.93407 41.1823 5.59503
head 166.199 58.3731 -38.8271
rclavicle -2.00773e-014 -6.75868e-015
rhumerus -38.081 -29.7009 -78.5454
rradius 15.5276
rwrist 22.9376
rhand -36.0691 0.422999
rfingers 7.12502
rthumb -9.1765 -29.3573
lclavicle -2.00773e-014 -6.75868e-015
lhumerus -40.2207 18.6061 79.0682
lradius 19.2594
lwrist -42.7374
lhand -32.3652 2.86157
lfingers 7.12502
lthumb -5.60137 32.7675
rfemur -9.10111 -18.7374 21.0268
rtibia 12.2871
rfoot -10.0809 13.0534
rtoes 8.18993e-014
lfemur -14.9119 19.75 -18.9537
ltibia 14.2499
lfoot -1.92832 -19.8774
ltoes 4.13472e-014
518
root -13.831 16.7355 5.04327 -319.921 92.6074 -329.128
lowerback -12.2565 -1.42776 2.08978
upperback -4.79933 -1.91084 -0.557271
thorax 1.75257 -0.890125 -2.0095
lowerneck -9.74677 -13.0723 -7.98248
upperneck 4.96083 41.2914 5.631
head 166.409 58.2647 -38.6995
rclavicle 1.27222e-014 8.34896e-015
rhumerus -37.9701 -29.7134 -78.565
rradius 15.4684
rwrist 23.3529
rhand -36.0743 0.504592
rfingers 7.12502
rthumb -9.18147 -29.2755
lclavicle 1.27222e-014 8.34896e-015
lhumerus -40.2138 18.5882 79.1173
lradius 19.284
lwrist -42.8724
lhand -32.3625 2.84423
lfingers 7.12502
lthumb -5.59874 32.7503
rfemur -9.07012 -18.6959 21.0024
rtibia 12.283
rfoot -10.0915 13.0454
rtoes 3.57812e-014
lfemur -14.892 19.7957 -18.9612
ltibia 14.2593
lfoot -1.84712 -19.939
ltoes 1.59028e-015
519
root -13.832 16.7365 5.04196 -319.924 92.617 -329.136
lowerback -12.2523 -1.43364 2.08194
upperback -4.78994 -1.91812 -0.561387
thorax 1.75987 -0.893749 -2.01037
lowerneck -9.69171 -13.093 -7.95511
upperneck 4.92809 41.0934 5.59297
head 166.236 58.4563 -38.7708
rclavicle 1.6847e-014 3.57812e-015
rhumerus -37.8756 -29.7563 -78.588
rradius 15.4287
rwrist 23.7295
rhand -36.0992 0.449474
rfingers 7.12502
rthumb -9.20552 -29.3296
lclavicle 1.6847e-014 3.57812e-015
lhumerus -40.1999 18.586 79.1521
lradius 19.3051
lwrist -42.9502
lhand -32.4959 2.7013
lfingers 7.12502
lthumb -5.72755 32.6039
rfemur -9.07264 -18.7074 21.0092
rtibia 12.2722
rfoot -10.0698 13.026
rtoes 7.95139e-014
lfemur -14.928 19.8493 -18.9765
ltibia 14.2829
lfoot -1.94763 -19.9874
ltoes 4.45278e-014
520
root -13.8322 16.7367 5.03979 -318.619 92.6156 -327.881
lowerback -12.3107 -1.41324 2.138
upperback -4.7972 -1.8979 -0.551705
thorax 1.78317 -0.883411 -2.03078
lowerneck -9.62743 -13.0854 -7.97174
upperneck 4.92887 41.0392 5.58913
head 166.252 58.5003 -38.7385
rclavicle 8.44835e-015 -2.78299e-015
rhumerus -37.7622 -29.5011 -78.809
rradius 15.5285
rwrist 23.5398
rhand -36.1162 0.429279
rfingers 7.12502
rthumb -9.22194 -29.3491
lclavicle 8.44835e-015 -2.78299e-015
lhumerus -40.1725 18.5183 79.244
lradius 19.3166
lwrist -42.8207
lhand -32.4504 2.6532
lfingers 7.12502
lthumb -5.68361 32.557
rfemur -9.13462 -18.6782 21.0654
rtibia 12.2691
rfoot -10.0389 13.0354
rtoes -6.52014e-014
lfemur -14.9845 19.8588 -18.9493
ltibia 14.2967
lfoot -1.94482 -19.9543
ltoes 7.95139e-015
521
root -13.8351 16.7367 5.03956 -318.742 92.6303 -328.02
lowerback -12.2759 -1.4106 2.12705
upperback -4.81164 -1.89163 -0.562548
thorax 1.74961 -0.880718 -2.03378
lowerneck -9.55647 -13.0914 -7.96331
upperneck 4.92266 40.9387 5.58648
head 166.232 58.6045 -38.7317
rclavicle 8.12532e-015 -1.59028e-015
rhumerus -37.7054 -29.4266 -78.898
rradius 15.5498
rwrist 23.6078
rhand -36.1402 0.613109
rfingers 7.12502
rthumb -9.24507 -29.1642
lclavicle 8.12532e-015 -1.59028e-015
lhumerus -40.1675 18.4956 79.2657
lradius 19.3085
lwrist -42.8967
lhand -32.4988 2.5743
lfingers 7.12502
lthumb -5.7303 32.4768
rfemur -9.14541 -18.5808 21.0738
rtibia 12.2486
rfoot -10.0133 12.936
rtoes -1.19271e-014
lfemur -15.0339 19.8483 -18.9546
ltibia 14.323
lfoot -1.93802 -19.9583
ltoes -6.99722e-014
522
root -13.8368 16.7362 5.03927 -319.005 92.6261 -328.299
lowerback -12.249 -1.41152 2.09143
upperback -4.82842 -1.88767 -0.558301
thorax 1.71917 -0.878709 -2.0077
lowerneck -9.4829 -13.0813 -7.99511
upperneck 4.92696 40.8988 5.58559
head 166.295 58.6105 -38.6642
rclavicle 6.28657e-015 5.1684e-015
rhumerus -37.6442 -29.1591 -79.0683
rradius 15.6553
rwrist 23.4434
rhand -36.1925 0.77143
rfingers 7.12502
rthumb -9.29553 -29.0036
lclavicle 6.28657e-015 5.1684e-015
lhumerus -40.1903 18.604 79.2575
lradius 19.3033
lwrist -42.9437
lhand -32.3672 2.50352
lfingers 7.12502
lthumb -5.60322 32.4094
rfemur -9.16287 -18.5814 21.0653
rtibia 12.2229
rfoot -9.98133 12.9343
rtoes 6.36111e-015
lfemur -15.0738 19.8403 -18.9819
ltibia 14.3508
lfoot -1.82971 -19.973
ltoes 4.77083e-015
523
root -13.8381 16.737 5.03795 -319.37 92.6397 -328.651
lowerback -12.2409 -1.40011 2.09757
upperback -4.79681 -1.87436 -0.582997
thorax 1.74737 -0.872364 -2.03542
lowerneck -9.47408 -13.1065 -7.96495
upperneck 4.90626 40.8009 5.57726
head 166.241 58.6978 -38.6911
rclavicle 5.71506e-015 3.97569e-016
rhumerus -37.4939 -28.8722 -79.339
rradius 15.7717
rwrist 23.3368
rhand -36.1779 0.498763
rfingers 7.12502
rthumb -9.28148 -29.2769
lclavicle 5.71506e-015 3.97569e-016
lhumerus -40.0873 18.4892 79.3601
lradius 19.3003
lwrist -42.8033
lhand -32.2432 2.68628
lfingers 7.12502
lthumb -5.48359 32.5953
rfemur -9.14608 -18.5973 21.0592
rtibia 12.2073
rfoot -10.0085 12.936
rtoes 1.98785e-014
lfemur -15.0763 19.8321 -18.9868
ltibia 14.3636
lfoot -1.93699 -19.9513
ltoes -3.33958e-014
524
root -13.8381 16.7374 5.03668 -318.953 92.6537 -328.229
lowerback -12.2103 -1.39689 2.11083
upperback -4.80255 -1.87136 -0.572543
thorax 1.72483 -0.871322 -2.03063
lowerneck -9.43395 -13.107 -7.97365
upperneck 4.91497 40.7826 5.57486
head 166.212 58.7263 -38.7021
rclavicle -2.06239e-015 -3.57812e-015
rhumerus -37.4479 -28.6066 -79.5024
rradius 15.8785
rwrist 23.2805
rhand -36.2045 0.446722
rfingers 7.12502
rthumb -9.30714 -29.3278
lclavicle -2.06239e-015 -3.57812e-015
lhumerus -40.0784 18.4231 79.4453
lradius 19.348
lwrist -42.7193
lhand -32.1897 2.70555
lfingers 7.12502
lthumb -5.43193 32.6159
rfemur -9.13884 -18.6117 21.0772
rtibia 12.1985
rfoot -9.96923 12.9401
rtoes -1.66979e-014
lfemur -15.0737 19.852 -18.9677
ltibia 14.3667
lfoot -1.92267 -19.982
ltoes -1.74931e-014
525
root -13.8393 16.7378 5.03546 -319.205 92.6696 -328.49
lowerback -12.1597 -1.39708 2.10779
upperback -4.83756 -1.8686 -0.57657
thorax 1.66097 -0.870629 -2.03065
lowerneck -9.34624 -13.117 -7.97756
upperneck 4.93623 40.7478 5.578
head 166.178 58.7371 -38.6995
rclavicle -1.62755e-014 -3.57812e-015
rhumerus -37.4228 -28.2673 -79.7173
rradius 16.0175
rwrist 22.9797
rhand -36.2198 0.351631
rfingers 7.12502
rthumb -9.32189 -29.4223
lclavicle -1.62755e-014 -3.57812e-015
lhumerus -40.1081 18.4121 79.4802
lradius 19.3596
lwrist -42.6408
lhand -32.1625 2.74636
lfingers 7.12502
lthumb -5.40561 32.6574
rfemur -9.13272 -18.6072 21.0772
rtibia 12.1582
rfoot -9.9458 12.923
rtoes -2.14687e-014
lfemur -15.1014 19.8086 -18.9739
ltibia 14.3929
lfoot -1.90608 -19.9492
ltoes 5.88403e-014
526
root -13.8387 16.7369 5.03347 -319.258 92.6667 -328.528
lowerback -12.125 -1.3873 2.09869
upperback -4.8428 -1.85413 -0.574632
thorax 1.63787 -0.86374 -2.02054
lowerneck -9.28841 -13.1428 -7.98451
upperneck 4.93462 40.6551 5.55198
head 166.047 58.8002 -38.7534
rclavicle 1.12313e-014 2.38542e-015
rhumerus -37.3871 -27.9483 -79.8949
rradius 16.1457
rwrist 22.697
rhand -36.2415 0.429215
rfingers 7.12502
rthumb -9.34288 -29.3437
lclavicle 1.12313e-014 2.38542e-015
lhumerus -40.1137 18.4348 79.5204
lradius 19.378
lwrist -42.6214
lhand -32.1459 2.74319
lfingers 7.12502
lthumb -5.38959 32.6547
rfemur -9.10333 -18.6286 21.0589
rtibia 12.1274
rfoot -9.93438 12.9643
rtoes 9.54166e-015
lfemur -15.0743 19.7809 -18.9755
ltibia 14.4028
lfoot -1.92537 -19.9284
ltoes -5.88403e-014
527
root -13.8386 16.7362 5.03303 -318.724 92.7018 -328.012
lowerback -12.1298 -1.37389 2.11441
upperback -4.85147 -1.83786 -0.565129
thorax 1.63198 -0.855623 -2.01739
lowerneck -9.24623 -13.1617 -7.99461
upperneck 4.94413 40.638 5.55191
head 166.052 58.7611 -38.7325
rclavicle -3.42158e-014 -1.31198e-014
rhumerus -37.3281 -27.5781 -80.1362
rradius 16.2918
rwrist 22.2758
rhand -36.301 0.537334
rfingers 7.12502
rthumb -9.40027 -29.233
lclavicle -3.42158e-014 -1.31198e-014
lhumerus -40.0697 18.3845 79.5975
lradius 19.3649
lwrist -42.5034
lhand -32.1717 2.79345
lfingers 7.12502
lthumb -5.41452 32.7043
rfemur -9.11031 -18.603 21.1059
rtibia 12.1158
rfoot -9.91051 12.9178
rtoes -4.77083e-015
lfemur -15.1021 19.7877 -18.9395
ltibia 14.4023
lfoot -1.83489 -19.9656
ltoes -1.74931e-014
